# xmcd
#
# Track frame offsets:
#	150
#	11708
#	23381
#	35286
#	47663
#	59181
#	72620
#	83990
#	96472
#	106057
#	116642
#	128309
#	139675
#	151816
#	166567
#	174811
#	185819
#	196816
#	209384
#	219333
#	232869
#	244088
#	254635
#	263133
#	274460
#	285253
#	296526
#	306076
#	315764
#	325939
#	337844
#
# Disc length: 4674 seconds
# Revision: 1
# Processed by: cddbd v1.5.2PL0 Copyright (c) Steve Scherf et al.
# Submitted via: dBpowerAMP V12.0
#
DISCID=ad12401f
DTITLE=Marty Robbins - Mister Teardrop [Remastered]
DYEAR=2008
DGENRE=Western
TTITLE0=Love Me or Leave Me Alone
TTITLE1=Crying 'Cause I love You
TTITLE2=I'll Go On Alone
TTITLE3=I Couldn't Keep From Crying
TTITLE4=Pretty Words
TTITLE5=A Castle in the Sky
TTITLE6=At the End of a Long Lonely Day
TTITLE7=Don't Make Me Ashamed
TTITLE8=Call Me Up
TTITLE9=Time Goes By
TTITLE10=That's All Right Mama
TTITLE11=Maybelline
TTITLE12=Pretty Mama
TTITLE13=Tennessee Toddy
TTITLE14=I'll Know You're Gone
TTITLE15=Singing the Blues
TTITLE16=I Can't Quit
TTITLE17=Mister Teardrop
TTITLE18=Knee Deep in the Blues
TTITLE19=The Same Two Lips
TTITLE20=A White Sport Coat (And a Pink Carnation)
TTITLE21=Please Don't Blame Me
TTITLE22=Teenage Dream
TTITLE23=The Story of My Life
TTITLE24=She Was Only Seventeen
TTITLE25=Beyond the Reef
TTITLE26=Just Married
TTITLE27=Stairway of Love
TTITLE28=Ain't I the Lucky One
TTITLE29=The Last Time I Saw My Heart
TTITLE30=The Hanging Tree
EXTD=
EXTT0=
EXTT1=
EXTT2=
EXTT3=
EXTT4=
EXTT5=
EXTT6=
EXTT7=
EXTT8=
EXTT9=
EXTT10=
EXTT11=
EXTT12=
EXTT13=
EXTT14=
EXTT15=
EXTT16=
EXTT17=
EXTT18=
EXTT19=
EXTT20=
EXTT21=
EXTT22=
EXTT23=
EXTT24=
EXTT25=
EXTT26=
EXTT27=
EXTT28=
EXTT29=
EXTT30=
PLAYORDER=
